<svg width="29" height="30" viewBox="0 0 29 30" fill="none" xmlns="http://www.w3.org/2000/svg">
<path d="M9.96694 27.5342H5.18109C2.80002 27.5342 1.65094 26.4325 1.65094 24.158V5.4411C1.65094 3.16663 2.81186 2.06494 5.18109 2.06494H9.96694C12.348 2.06494 13.4971 3.16663 13.4971 5.4411V24.158C13.4971 26.4325 12.3362 27.5342 9.96694 27.5342ZM5.18109 3.84186C3.67663 3.84186 3.42786 4.24463 3.42786 5.4411V24.158C3.42786 25.3545 3.67663 25.7573 5.18109 25.7573H9.96694C11.4714 25.7573 11.7202 25.3545 11.7202 24.158V5.4411C11.7202 4.24463 11.4714 3.84186 9.96694 3.84186H5.18109Z" fill="#1A2B88"/>
<path d="M23.5894 16.8726H18.8035C16.4225 16.8726 15.2734 15.7709 15.2734 13.4965V5.4411C15.2734 3.16663 16.4343 2.06494 18.8035 2.06494H23.5894C25.9705 2.06494 27.1195 3.16663 27.1195 5.4411V13.4965C27.1195 15.7709 25.9586 16.8726 23.5894 16.8726ZM18.8035 3.84186C17.2991 3.84186 17.0503 4.24463 17.0503 5.4411V13.4965C17.0503 14.6929 17.2991 15.0957 18.8035 15.0957H23.5894C25.0938 15.0957 25.3426 14.6929 25.3426 13.4965V5.4411C25.3426 4.24463 25.0938 3.84186 23.5894 3.84186H18.8035Z" fill="#1A2B88"/>
<path d="M23.5894 27.5337H18.8035C16.4225 27.5337 15.2734 26.432 15.2734 24.1575V22.0252C15.2734 19.7507 16.4343 18.649 18.8035 18.649H23.5894C25.9705 18.649 27.1195 19.7507 27.1195 22.0252V24.1575C27.1195 26.432 25.9586 27.5337 23.5894 27.5337ZM18.8035 20.426C17.2991 20.426 17.0503 20.8287 17.0503 22.0252V24.1575C17.0503 25.354 17.2991 25.7567 18.8035 25.7567H23.5894C25.0938 25.7567 25.3426 25.354 25.3426 24.1575V22.0252C25.3426 20.8287 25.0938 20.426 23.5894 20.426H18.8035Z" fill="#1A2B88"/>
</svg>
