<svg width="10" height="11" viewBox="0 0 10 11" fill="none" xmlns="http://www.w3.org/2000/svg">
<g clip-path="url(#clip0_601_36)">
<path d="M4.58728 8.5667L2.79176 6.7706L2.79175 6.77059C2.71431 6.69316 2.60929 6.64966 2.49978 6.64966C2.39028 6.64966 2.28526 6.69316 2.20782 6.77059C2.13039 6.84802 2.08689 6.95305 2.08689 7.06255C2.08689 7.11677 2.09757 7.17047 2.11832 7.22056C2.13907 7.27065 2.16948 7.31617 2.20782 7.35451L2.27838 7.28395L2.20782 7.35451L4.70773 9.85442C4.70775 9.85444 4.70778 9.85446 4.7078 9.85448L4.58728 8.5667ZM4.58728 8.5667V1.43755C4.58728 1.32815 4.63074 1.22323 4.7081 1.14587C4.78546 1.06851 4.89038 1.02505 4.99978 1.02505C5.10919 1.02505 5.21411 1.06851 5.29147 1.14587C5.36882 1.22323 5.41228 1.32815 5.41228 1.43755V8.5667L7.20781 6.7706L7.20782 6.77059C7.28526 6.69316 7.39028 6.64966 7.49978 6.64966C7.60929 6.64966 7.71431 6.69316 7.79174 6.77059C7.86918 6.84802 7.91268 6.95305 7.91268 7.06255C7.91268 7.17206 7.86918 7.27708 7.79174 7.35451L5.29183 9.85442C5.29181 9.85444 5.29179 9.85446 5.29177 9.85448L4.58728 8.5667Z" fill="#FF0000" stroke="#FF0000" stroke-width="0.2"/>
</g>
<defs>
<clipPath id="clip0_601_36">
<rect width="10" height="10" fill="white" transform="matrix(1 0 0 -1 0 10.5)"/>
</clipPath>
</defs>
</svg>
