<svg width="51" height="51" viewBox="0 0 51 51" fill="none" xmlns="http://www.w3.org/2000/svg">
<g filter="url(#filter0_d_601_188)">
<circle cx="25.5" cy="21.5" r="17.5" fill="#253275"/>
</g>
<g clip-path="url(#clip0_601_188)">
<path fill-rule="evenodd" clip-rule="evenodd" d="M22.2208 12.8884C23.1983 12.8434 23.51 12.8334 26 12.8334C28.49 12.8334 28.8017 12.8442 29.7783 12.8884C30.755 12.9325 31.4217 13.0884 32.005 13.3142C32.6158 13.545 33.17 13.9059 33.6283 14.3725C34.095 14.83 34.455 15.3834 34.685 15.995C34.9117 16.5784 35.0667 17.245 35.1117 18.22C35.1567 19.1992 35.1667 19.5109 35.1667 22C35.1667 24.49 35.1558 24.8017 35.1117 25.7792C35.0675 26.7542 34.9117 27.4209 34.685 28.0042C34.455 28.616 34.0944 29.1702 33.6283 29.6284C33.17 30.095 32.6158 30.455 32.005 30.685C31.4217 30.9117 30.755 31.0667 29.78 31.1117C28.8017 31.1567 28.49 31.1667 26 31.1667C23.51 31.1667 23.1983 31.1559 22.2208 31.1117C21.2458 31.0675 20.5792 30.9117 19.9958 30.685C19.3841 30.455 18.8299 30.0944 18.3717 29.6284C17.9053 29.1706 17.5444 28.6166 17.3142 28.005C17.0883 27.4217 16.9333 26.755 16.8883 25.78C16.8433 24.8009 16.8333 24.4892 16.8333 22C16.8333 19.51 16.8442 19.1984 16.8883 18.2217C16.9325 17.245 17.0883 16.5784 17.3142 15.995C17.5448 15.3834 17.9059 14.8295 18.3725 14.3717C18.83 13.9055 19.3837 13.5446 19.995 13.3142C20.5783 13.0884 21.245 12.9334 22.22 12.8884H22.2208ZM29.7042 14.5384C28.7375 14.4942 28.4475 14.485 26 14.485C23.5525 14.485 23.2625 14.4942 22.2958 14.5384C21.4017 14.5792 20.9167 14.7284 20.5933 14.8542C20.1658 15.0209 19.86 15.2184 19.5392 15.5392C19.235 15.8351 19.001 16.1953 18.8542 16.5934C18.7283 16.9167 18.5792 17.4017 18.5383 18.2959C18.4942 19.2625 18.485 19.5525 18.485 22C18.485 24.4475 18.4942 24.7375 18.5383 25.7042C18.5792 26.5984 18.7283 27.0834 18.8542 27.4067C19.0008 27.8042 19.235 28.165 19.5392 28.4609C19.835 28.765 20.1958 28.9992 20.5933 29.1459C20.9167 29.2717 21.4017 29.4209 22.2958 29.4617C23.2625 29.5059 23.5517 29.515 26 29.515C28.4483 29.515 28.7375 29.5059 29.7042 29.4617C30.5983 29.4209 31.0833 29.2717 31.4067 29.1459C31.8342 28.9792 32.14 28.7817 32.4608 28.4609C32.765 28.165 32.9992 27.8042 33.1458 27.4067C33.2717 27.0834 33.4208 26.5984 33.4617 25.7042C33.5058 24.7375 33.515 24.4475 33.515 22C33.515 19.5525 33.5058 19.2625 33.4617 18.2959C33.4208 17.4017 33.2717 16.9167 33.1458 16.5934C32.9792 16.1659 32.7817 15.86 32.4608 15.5392C32.165 15.2351 31.8048 15.001 31.4067 14.8542C31.0833 14.7284 30.5983 14.5792 29.7042 14.5384ZM24.8292 24.8259C25.4831 25.0981 26.2112 25.1348 26.8891 24.9298C27.5671 24.7248 28.1528 24.2908 28.5464 23.7019C28.9399 23.113 29.1167 22.4058 29.0467 21.701C28.9767 20.9962 28.6642 20.3375 28.1625 19.8375C27.8427 19.5179 27.456 19.2732 27.0303 19.121C26.6046 18.9688 26.1504 18.9128 25.7004 18.9572C25.2505 19.0016 24.816 19.1452 24.4282 19.3776C24.0404 19.6101 23.709 19.9257 23.4578 20.3016C23.2066 20.6775 23.0418 21.1044 22.9754 21.5517C22.909 21.9989 22.9426 22.4553 23.0738 22.888C23.205 23.3207 23.4304 23.7189 23.7339 24.054C24.0375 24.3891 24.4115 24.6527 24.8292 24.8259ZM22.6683 18.6684C23.1059 18.2309 23.6253 17.8838 24.1969 17.647C24.7686 17.4102 25.3813 17.2884 26 17.2884C26.6188 17.2884 27.2314 17.4102 27.8031 17.647C28.3747 17.8838 28.8942 18.2309 29.3317 18.6684C29.7692 19.1059 30.1163 19.6253 30.353 20.197C30.5898 20.7686 30.7117 21.3813 30.7117 22C30.7117 22.6188 30.5898 23.2315 30.353 23.8031C30.1163 24.3748 29.7692 24.8942 29.3317 25.3317C28.4481 26.2153 27.2496 26.7117 26 26.7117C24.7504 26.7117 23.552 26.2153 22.6683 25.3317C21.7847 24.4481 21.2883 23.2497 21.2883 22C21.2883 20.7504 21.7847 19.552 22.6683 18.6684ZM31.7567 17.99C31.8651 17.8878 31.9519 17.7648 32.0119 17.6284C32.072 17.4919 32.104 17.3448 32.1062 17.1958C32.1084 17.0468 32.0806 16.8988 32.0246 16.7607C31.9685 16.6226 31.8854 16.4971 31.78 16.3917C31.6746 16.2863 31.5491 16.2032 31.411 16.1471C31.2729 16.0911 31.1249 16.0634 30.9759 16.0655C30.8269 16.0677 30.6798 16.0998 30.5434 16.1598C30.4069 16.2198 30.284 16.3066 30.1817 16.415C29.9828 16.6259 29.8739 16.906 29.8781 17.1958C29.8823 17.4857 29.9993 17.7624 30.2043 17.9674C30.4093 18.1724 30.6861 18.2894 30.9759 18.2936C31.2657 18.2978 31.5458 18.1889 31.7567 17.99Z" fill="white"/>
</g>
<defs>
<filter id="filter0_d_601_188" x="0" y="0" width="51" height="51" filterUnits="userSpaceOnUse" color-interpolation-filters="sRGB">
<feFlood flood-opacity="0" result="BackgroundImageFix"/>
<feColorMatrix in="SourceAlpha" type="matrix" values="0 0 0 0 0 0 0 0 0 0 0 0 0 0 0 0 0 0 127 0" result="hardAlpha"/>
<feOffset dy="4"/>
<feGaussianBlur stdDeviation="4"/>
<feComposite in2="hardAlpha" operator="out"/>
<feColorMatrix type="matrix" values="0 0 0 0 0 0 0 0 0 0 0 0 0 0 0 0 0 0 0.1 0"/>
<feBlend mode="normal" in2="BackgroundImageFix" result="effect1_dropShadow_601_188"/>
<feBlend mode="normal" in="SourceGraphic" in2="effect1_dropShadow_601_188" result="shape"/>
</filter>
<clipPath id="clip0_601_188">
<rect width="20" height="20" fill="white" transform="translate(16 12)"/>
</clipPath>
</defs>
</svg>
