<svg width="44" height="44" viewBox="0 0 44 44" fill="none" xmlns="http://www.w3.org/2000/svg">
<rect width="44" height="44" rx="12.2195" fill="#F2F1FF"/>
<path d="M31.1988 16V28C31.1988 32.8 29.9988 34 25.1988 34H17.9988C13.1988 34 11.9988 32.8 11.9988 28V16C11.9988 11.2 13.1988 10 17.9988 10H25.1988C29.9988 10 31.1988 11.2 31.1988 16Z" stroke="#1A2B88" stroke-width="1.8" stroke-linecap="round" stroke-linejoin="round"/>
<path d="M23.9989 14.2H19.1989" stroke="#1A2B88" stroke-width="1.8" stroke-linecap="round" stroke-linejoin="round"/>
<path d="M21.5979 30.52C22.6252 30.52 23.4579 29.6873 23.4579 28.66C23.4579 27.6328 22.6252 26.8 21.5979 26.8C20.5707 26.8 19.7379 27.6328 19.7379 28.66C19.7379 29.6873 20.5707 30.52 21.5979 30.52Z" stroke="#1A2B88" stroke-width="1.8" stroke-linecap="round" stroke-linejoin="round"/>
</svg>
