<svg width="29" height="29" viewBox="0 0 29 29" fill="none" xmlns="http://www.w3.org/2000/svg">
<path d="M25.0469 27.1959H3.72379C3.2381 27.1959 2.83533 26.7931 2.83533 26.3074C2.83533 25.8217 3.2381 25.4189 3.72379 25.4189H25.0469C25.5326 25.4189 25.9353 25.8217 25.9353 26.3074C25.9353 26.7931 25.5326 27.1959 25.0469 27.1959Z" fill="#7B7B7B"/>
<path d="M6.80377 23.6424H4.9084C3.77117 23.6424 2.83533 22.7065 2.83533 21.5693V11.3579C2.83533 10.2206 3.77117 9.28479 4.9084 9.28479H6.80377C7.941 9.28479 8.87684 10.2206 8.87684 11.3579V21.5693C8.87684 22.7065 7.941 23.6424 6.80377 23.6424ZM4.9084 11.0499C4.74256 11.0499 4.61225 11.1802 4.61225 11.346V21.5693C4.61225 21.7351 4.74256 21.8654 4.9084 21.8654H6.80377C6.96961 21.8654 7.09992 21.7351 7.09992 21.5693V11.3579C7.09992 11.192 6.96961 11.0617 6.80377 11.0617H4.9084V11.0499Z" fill="#7B7B7B"/>
<path d="M15.3327 23.6418H13.4373C12.3 23.6418 11.3642 22.7059 11.3642 21.5687V7.57845C11.3642 6.44122 12.3 5.50537 13.4373 5.50537H15.3327C16.4699 5.50537 17.4057 6.44122 17.4057 7.57845V21.5687C17.4057 22.7059 16.4699 23.6418 15.3327 23.6418ZM13.4373 7.28229C13.2714 7.28229 13.1411 7.4126 13.1411 7.57845V21.5687C13.1411 21.7346 13.2714 21.8649 13.4373 21.8649H15.3327C15.4985 21.8649 15.6288 21.7346 15.6288 21.5687V7.57845C15.6288 7.4126 15.4985 7.28229 15.3327 7.28229H13.4373Z" fill="#7B7B7B"/>
<path d="M23.8629 23.6427H21.9675C20.8303 23.6427 19.8944 22.7068 19.8944 21.5696V3.80037C19.8944 2.66314 20.8303 1.72729 21.9675 1.72729H23.8629C25.0001 1.72729 25.9359 2.66314 25.9359 3.80037V21.5696C25.9359 22.7068 25.0001 23.6427 23.8629 23.6427ZM21.9675 3.50422C21.8016 3.50422 21.6713 3.63453 21.6713 3.80037V21.5696C21.6713 21.7354 21.8016 21.8658 21.9675 21.8658H23.8629C24.0287 21.8658 24.159 21.7354 24.159 21.5696V3.80037C24.159 3.63453 24.0287 3.50422 23.8629 3.50422H21.9675Z" fill="#7B7B7B"/>
</svg>
