<svg width="28" height="28" viewBox="0 0 28 28" fill="none" xmlns="http://www.w3.org/2000/svg">
<path d="M14.2531 13.6586C14.2193 13.6586 14.1967 13.6586 14.1628 13.6586C14.1063 13.6474 14.0273 13.6474 13.9595 13.6586C10.6847 13.557 8.21167 10.9823 8.21167 7.80915C8.21167 4.57951 10.8428 1.94836 14.0725 1.94836C17.3021 1.94836 19.9332 4.57951 19.9332 7.80915C19.922 10.9823 17.4376 13.557 14.287 13.6586C14.2757 13.6586 14.2644 13.6586 14.2531 13.6586ZM14.0725 3.64223C11.7801 3.64223 9.90554 5.51678 9.90554 7.80915C9.90554 10.0676 11.6672 11.8857 13.9144 11.9648C13.9708 11.9535 14.1289 11.9535 14.2757 11.9648C16.489 11.8631 18.2281 10.0451 18.2394 7.80915C18.2394 5.51678 16.3648 3.64223 14.0725 3.64223Z" fill="#7B7B7B"/>
<path d="M14.2644 26.0014C12.0511 26.0014 9.82646 25.4368 8.14388 24.3075C6.57423 23.2686 5.716 21.8458 5.716 20.2987C5.716 18.7516 6.57423 17.3175 8.14388 16.2673C11.5316 14.0201 17.0198 14.0201 20.3849 16.2673C21.9433 17.3062 22.8128 18.7291 22.8128 20.2761C22.8128 21.8232 21.9546 23.2573 20.3849 24.3075C18.691 25.4368 16.4777 26.0014 14.2644 26.0014ZM9.08116 17.6902C7.99708 18.4129 7.40987 19.3389 7.40987 20.31C7.40987 21.2699 8.00837 22.1958 9.08116 22.9073C11.893 24.7931 16.6358 24.7931 19.4476 22.9073C20.5317 22.1846 21.1189 21.2586 21.1189 20.2874C21.1189 19.3276 20.5204 18.4016 19.4476 17.6902C16.6358 15.8156 11.893 15.8156 9.08116 17.6902Z" fill="#7B7B7B"/>
</svg>
