<svg width="30" height="30" viewBox="0 0 30 30" fill="none" xmlns="http://www.w3.org/2000/svg">
<path d="M13.4372 3.06228C14.2997 2.32478 15.7122 2.32478 16.5872 3.06228L18.5622 4.76241C18.9372 5.08741 19.6372 5.34988 20.1372 5.34988H22.2622C23.5872 5.34988 24.6747 6.43729 24.6747 7.76229V9.88738C24.6747 10.3749 24.9372 11.0874 25.2622 11.4624L26.9622 13.4373C27.6997 14.2998 27.6997 15.7124 26.9622 16.5874L25.2622 18.5623C24.9372 18.9373 24.6747 19.6373 24.6747 20.1373V22.2624C24.6747 23.5874 23.5872 24.6748 22.2622 24.6748H20.1372C19.6497 24.6748 18.9372 24.9373 18.5622 25.2623L16.5872 26.9623C15.7247 27.6998 14.3122 27.6998 13.4372 26.9623L11.4622 25.2623C11.0872 24.9373 10.3872 24.6748 9.88723 24.6748H7.72472C6.39972 24.6748 5.31223 23.5874 5.31223 22.2624V20.1248C5.31223 19.6373 5.04974 18.9373 4.73724 18.5623L3.04973 16.5749C2.32473 15.7124 2.32473 14.3124 3.04973 13.4499L4.73724 11.4624C5.04974 11.0874 5.31223 10.3874 5.31223 9.8999V7.76229C5.31223 6.43729 6.39972 5.34988 7.72472 5.34988H9.88723C10.3747 5.34988 11.0872 5.08741 11.4622 4.76241L13.4372 3.06228Z" stroke="#7B7B7B" stroke-width="1.5" stroke-linecap="round" stroke-linejoin="round"/>
<path d="M12.3623 18.5249L14.1748 19.9249C14.4123 20.1624 14.9373 20.2749 15.2873 20.2749H17.4998C18.1998 20.2749 18.9623 19.7499 19.1373 19.0499L20.5373 14.7749C20.8248 13.9624 20.2998 13.2499 19.4248 13.2499H17.0873C16.7373 13.2499 16.4498 12.9625 16.4998 12.55L16.7873 10.675C16.8998 10.15 16.5498 9.56244 16.0248 9.38744C15.5623 9.21244 14.9748 9.44988 14.7373 9.79988L12.3373 13.3624" stroke="#7B7B7B" stroke-width="1.5" stroke-miterlimit="10"/>
<path d="M9.37476 18.5248V12.7999C9.37476 11.9749 9.72476 11.6874 10.5498 11.6874H11.1373C11.9498 11.6874 12.3123 11.9749 12.3123 12.7999V18.5248C12.3123 19.3373 11.9623 19.6374 11.1373 19.6374H10.5498C9.72476 19.6374 9.37476 19.3498 9.37476 18.5248Z" stroke="#7B7B7B" stroke-width="1.5" stroke-linecap="round" stroke-linejoin="round"/>
</svg>
