<svg width="28" height="28" viewBox="0 0 28 28" fill="none" xmlns="http://www.w3.org/2000/svg">
<path d="M14.0729 18.6282C11.7353 18.6282 9.8382 16.731 9.8382 14.3935C9.8382 12.0559 11.7353 10.1588 14.0729 10.1588C16.4104 10.1588 18.3075 12.0559 18.3075 14.3935C18.3075 16.731 16.4104 18.6282 14.0729 18.6282ZM14.0729 11.8527C12.6726 11.8527 11.5321 12.9932 11.5321 14.3935C11.5321 15.7938 12.6726 16.9343 14.0729 16.9343C15.4731 16.9343 16.6137 15.7938 16.6137 14.3935C16.6137 12.9932 15.4731 11.8527 14.0729 11.8527Z" fill="#7B7B7B"/>
<path d="M17.6977 25.9004C17.4606 25.9004 17.2235 25.8666 16.9863 25.8101C16.2862 25.6181 15.699 25.1777 15.3263 24.5566L15.1908 24.3308C14.5246 23.179 13.6099 23.179 12.9436 24.3308L12.8194 24.5454C12.4468 25.1777 11.8595 25.6294 11.1594 25.8101C10.448 26.0021 9.71398 25.9004 9.09289 25.5278L7.15059 24.4098C6.46175 24.0146 5.96488 23.3709 5.75032 22.5918C5.54706 21.8126 5.64869 21.0108 6.04393 20.322C6.37141 19.7461 6.46175 19.2266 6.26978 18.8991C6.0778 18.5716 5.59223 18.3797 4.92597 18.3797C3.27727 18.3797 1.93347 17.0359 1.93347 15.3872V13.3997C1.93347 11.751 3.27727 10.4072 4.92597 10.4072C5.59223 10.4072 6.0778 10.2152 6.26978 9.88774C6.46175 9.56026 6.3827 9.04081 6.04393 8.46489C5.64869 7.77605 5.54706 6.96299 5.75032 6.19511C5.95359 5.41593 6.45046 4.77226 7.15059 4.37702L9.10418 3.25907C10.3802 2.50247 12.0628 2.94288 12.8307 4.24151L12.9662 4.46736C13.6325 5.61919 14.5471 5.61919 15.2134 4.46736L15.3376 4.2528C16.1055 2.94288 17.7881 2.50247 19.0754 3.27036L21.0177 4.38831C21.7066 4.78355 22.2034 5.42722 22.418 6.2064C22.6213 6.98558 22.5196 7.78734 22.1244 8.47618C21.7969 9.0521 21.7066 9.57155 21.8985 9.89903C22.0905 10.2265 22.5761 10.4185 23.2423 10.4185C24.891 10.4185 26.2348 11.7623 26.2348 13.411V15.3985C26.2348 17.0472 24.891 18.391 23.2423 18.391C22.5761 18.391 22.0905 18.5829 21.8985 18.9104C21.7066 19.2379 21.7856 19.7574 22.1244 20.3333C22.5196 21.0221 22.6325 21.8352 22.418 22.6031C22.2147 23.3822 21.7179 24.0259 21.0177 24.4211L19.0641 25.5391C18.635 25.7762 18.172 25.9004 17.6977 25.9004ZM14.0729 21.7222C15.0779 21.7222 16.0152 22.3546 16.6588 23.4726L16.7831 23.6871C16.9186 23.9243 17.1444 24.0937 17.4154 24.1614C17.6865 24.2292 17.9575 24.1953 18.1833 24.0598L20.1369 22.9305C20.4305 22.7611 20.6564 22.4788 20.7467 22.1401C20.837 21.8013 20.7919 21.4512 20.6225 21.1576C19.9788 20.051 19.8998 18.9104 20.3966 18.0409C20.8935 17.1714 21.9211 16.6745 23.2085 16.6745C23.9312 16.6745 24.5071 16.0986 24.5071 15.3759V13.3884C24.5071 12.677 23.9312 12.0898 23.2085 12.0898C21.9211 12.0898 20.8935 11.5929 20.3966 10.7234C19.8998 9.85386 19.9788 8.71333 20.6225 7.60666C20.7919 7.31306 20.837 6.96299 20.7467 6.62422C20.6564 6.28545 20.4418 6.01443 20.1482 5.83375L18.1946 4.71579C17.709 4.42219 17.0654 4.59158 16.7718 5.08845L16.6475 5.303C16.0039 6.42096 15.0666 7.05333 14.0616 7.05333C13.0565 7.05333 12.1193 6.42096 11.4756 5.303L11.3514 5.07715C11.0691 4.60287 10.4367 4.43348 9.95112 4.71579L7.99752 5.84504C7.70392 6.01443 7.47807 6.29674 7.38773 6.63551C7.29739 6.97429 7.34256 7.32435 7.51195 7.61796C8.15562 8.72462 8.23466 9.86516 7.7378 10.7347C7.24093 11.6042 6.21331 12.1011 4.92597 12.1011C4.20326 12.1011 3.62734 12.677 3.62734 13.3997V15.3872C3.62734 16.0986 4.20326 16.6858 4.92597 16.6858C6.21331 16.6858 7.24093 17.1827 7.7378 18.0522C8.23466 18.9217 8.15562 20.0622 7.51195 21.1689C7.34256 21.4625 7.29739 21.8126 7.38773 22.1514C7.47807 22.4901 7.69263 22.7611 7.98623 22.9418L9.93983 24.0598C10.177 24.2066 10.4593 24.2405 10.719 24.1727C10.99 24.1049 11.2159 23.9243 11.3627 23.6871L11.4869 23.4726C12.1306 22.3659 13.0678 21.7222 14.0729 21.7222Z" fill="#7B7B7B"/>
</svg>
