<svg width="51" height="51" viewBox="0 0 51 51" fill="none" xmlns="http://www.w3.org/2000/svg">
<g filter="url(#filter0_d_601_178)">
<circle cx="25.5" cy="21.5" r="17.5" fill="#253275"/>
</g>
<g clip-path="url(#clip0_601_178)">
<path d="M34.5 20.1996C32.7803 20.2037 31.1027 19.6674 29.7043 18.6664V25.6477C29.7038 26.9407 29.3086 28.2027 28.5715 29.265C27.8344 30.3274 26.7906 31.1393 25.5795 31.5924C24.3685 32.0455 23.048 32.118 21.7946 31.8003C20.5413 31.4826 19.4147 30.7899 18.5657 29.8147C17.7167 28.8395 17.1856 27.6283 17.0435 26.3431C16.9014 25.058 17.1551 23.76 17.7705 22.6229C18.386 21.4858 19.334 20.5637 20.4877 19.9798C21.6414 19.396 22.9458 19.1783 24.2266 19.3559V22.8672C23.6405 22.6828 23.0111 22.6884 22.4284 22.8831C21.8457 23.0777 21.3394 23.4515 20.9817 23.9511C20.6241 24.4507 20.4335 25.0505 20.4372 25.6649C20.4408 26.2793 20.6384 26.8768 21.0019 27.3721C21.3654 27.8675 21.8761 28.2353 22.461 28.4231C23.046 28.6109 23.6754 28.609 24.2592 28.4178C24.8431 28.2265 25.3516 27.8557 25.7122 27.3582C26.0727 26.8607 26.2668 26.262 26.2668 25.6477V12H29.7043C29.7019 12.2903 29.7262 12.5802 29.7769 12.866C29.8964 13.5041 30.1448 14.1111 30.5068 14.6499C30.8689 15.1887 31.3371 15.648 31.8828 15.9996C32.6591 16.5129 33.5693 16.7865 34.5 16.7863V20.1996Z" fill="white"/>
</g>
<defs>
<filter id="filter0_d_601_178" x="0" y="0" width="51" height="51" filterUnits="userSpaceOnUse" color-interpolation-filters="sRGB">
<feFlood flood-opacity="0" result="BackgroundImageFix"/>
<feColorMatrix in="SourceAlpha" type="matrix" values="0 0 0 0 0 0 0 0 0 0 0 0 0 0 0 0 0 0 127 0" result="hardAlpha"/>
<feOffset dy="4"/>
<feGaussianBlur stdDeviation="4"/>
<feComposite in2="hardAlpha" operator="out"/>
<feColorMatrix type="matrix" values="0 0 0 0 0 0 0 0 0 0 0 0 0 0 0 0 0 0 0.1 0"/>
<feBlend mode="normal" in2="BackgroundImageFix" result="effect1_dropShadow_601_178"/>
<feBlend mode="normal" in="SourceGraphic" in2="effect1_dropShadow_601_178" result="shape"/>
</filter>
<clipPath id="clip0_601_178">
<rect width="17.5" height="20" fill="white" transform="translate(17 12)"/>
</clipPath>
</defs>
</svg>
