<svg width="49" height="49" viewBox="0 0 49 49" fill="none" xmlns="http://www.w3.org/2000/svg">
<path d="M16.8438 46.1672V35.6016L8.95782 41.4203C11.1781 43.4875 13.8578 45.0953 16.8438 46.1672ZM32.1563 46.1672C35.1422 45.0953 37.8219 43.4875 40.0422 41.4203L32.1563 35.525V46.1672ZM2.83282 32.1562C3.06251 32.9219 3.36876 33.6109 3.75157 34.3766L6.73751 32.1562H2.83282ZM42.2625 32.1562L45.2484 34.3766C45.5547 33.6875 45.8609 32.9219 46.1672 32.1562H42.2625Z" fill="#2A5F9E"/>
<path d="M17.9922 29.0938H1.99063C2.22032 30.1656 2.52657 31.1609 2.83282 32.1562H6.73751L3.75157 34.3766C4.36407 35.6781 5.05313 36.8266 5.89532 37.975L13.7813 32.1562H16.8438V33.6875L7.88594 40.2719L8.95782 41.3438L16.8438 35.6016V46.1672C17.8391 46.55 18.8344 46.7797 19.9063 47.0094V29.0938H17.9922ZM47.0094 29.0938H29.0938V47.0094C30.1656 46.7797 31.1609 46.4734 32.1563 46.1672V35.6016L40.0422 41.3438C41.1141 40.3484 42.0328 39.2766 42.9516 38.1281L34.7594 32.1562H39.9656L44.6359 35.6016C44.8656 35.2188 45.0953 34.7594 45.2484 34.3766L42.2625 32.1562H46.1672C46.4734 31.1609 46.7797 30.1656 47.0094 29.0938Z" fill="white"/>
<path d="M5.89532 37.975C6.50782 38.8172 7.12032 39.5828 7.80939 40.3484L16.8438 33.7641V32.2328H13.7813L5.89532 37.975ZM34.8359 32.1562L43.0281 38.1281C43.3344 37.7453 43.5641 37.3625 43.8703 36.9797C43.9469 36.9031 43.9469 36.8266 44.0234 36.8266C44.2531 36.4437 44.5594 35.9844 44.7891 35.6016L39.9656 32.1562H34.8359Z" fill="#ED4C5C"/>
<path d="M32.1563 2.83276V13.3984L40.0422 7.57964C37.8219 5.51245 35.1422 3.90464 32.1563 2.83276ZM16.8438 2.83276C13.8578 3.90464 11.1781 5.51245 8.95782 7.57964L16.8438 13.475V2.83276ZM46.1672 16.8437C45.9375 16.0781 45.6313 15.389 45.2484 14.6234L42.2625 16.8437H46.1672ZM6.73751 16.8437L3.75157 14.6234C3.44532 15.389 3.13907 16.0781 2.83282 16.8437H6.73751Z" fill="#2A5F9E"/>
<path d="M31.0078 19.9062H46.9328C46.7031 18.8344 46.3969 17.839 46.0906 16.8437H42.1859L45.1719 14.6234C44.5594 13.3219 43.8703 12.1734 43.0281 11.025L35.2188 16.8437H32.1563V15.3125L41.1141 8.7281L40.0422 7.65623L32.1563 13.3984V2.83279C31.1609 2.44998 30.1656 2.22029 29.0938 1.9906V19.9062H31.0078ZM1.99063 19.9062H19.9063V1.9906C18.8344 2.22029 17.8391 2.52654 16.8438 2.83279V13.3984L8.95782 7.65623C7.88594 8.65154 6.96719 9.72341 6.04844 10.8719L14.2406 16.8437H9.03438L4.36407 13.3984C4.13438 13.7812 3.90469 14.2406 3.75157 14.6234L6.73751 16.8437H2.83282C2.52657 17.839 2.22032 18.8344 1.99063 19.9062Z" fill="white"/>
<path d="M43.1047 11.025C42.4922 10.1829 41.8797 9.41724 41.1906 8.65161L32.1563 15.236V16.7672H35.2188L43.1047 11.025ZM14.1641 16.8438L6.04844 10.8719C5.74219 11.2547 5.51251 11.6375 5.20626 12.0204C5.12969 12.0969 5.12969 12.1735 5.05313 12.1735C4.82344 12.5563 4.51719 13.0157 4.28751 13.3985L8.95782 16.8438H14.1641Z" fill="#ED4C5C"/>
<path d="M47.0094 19.9062H29.0938V1.99062C27.6391 1.68437 26.1078 1.53125 24.5 1.53125C22.8922 1.53125 21.3609 1.68437 19.9062 1.99062V19.9062H1.99062C1.68437 21.3609 1.53125 22.8922 1.53125 24.5C1.53125 26.1078 1.68437 27.6391 1.99062 29.0938H19.9062V47.0094C21.3609 47.3156 22.8922 47.4688 24.5 47.4688C26.1078 47.4688 27.6391 47.3156 29.0938 47.0094V29.0938H47.0094C47.3156 27.6391 47.4688 26.1078 47.4688 24.5C47.4688 22.8922 47.3156 21.3609 47.0094 19.9062Z" fill="#ED4C5C"/>
</svg>
