<svg width="10" height="11" viewBox="0 0 10 11" fill="none" xmlns="http://www.w3.org/2000/svg">
<g clip-path="url(#clip0_601_66)">
<path d="M4.58728 2.4333L2.79176 4.2294L2.79175 4.22941C2.71431 4.30684 2.60929 4.35034 2.49978 4.35034C2.39028 4.35034 2.28526 4.30684 2.20782 4.22941C2.13039 4.15198 2.08689 4.04695 2.08689 3.93745C2.08689 3.88323 2.09757 3.82953 2.11832 3.77944C2.13907 3.72935 2.16948 3.68383 2.20782 3.64549L2.27838 3.71605L2.20782 3.64549L4.70773 1.14558C4.70775 1.14556 4.70778 1.14554 4.7078 1.14552L4.58728 2.4333ZM4.58728 2.4333V9.56245C4.58728 9.67185 4.63074 9.77677 4.7081 9.85413C4.78546 9.93149 4.89038 9.97495 4.99978 9.97495C5.10919 9.97495 5.21411 9.93149 5.29147 9.85413C5.36882 9.77677 5.41228 9.67185 5.41228 9.56245V2.4333L7.20781 4.2294L7.20782 4.22941C7.28526 4.30684 7.39028 4.35034 7.49978 4.35034C7.60929 4.35034 7.71431 4.30684 7.79174 4.22941C7.86918 4.15198 7.91268 4.04695 7.91268 3.93745C7.91268 3.82794 7.86918 3.72292 7.79174 3.64549L5.29183 1.14558C5.29181 1.14556 5.29179 1.14554 5.29177 1.14552L4.58728 2.4333Z" fill="black" stroke="black" stroke-width="0.2"/>
</g>
<defs>
<clipPath id="clip0_601_66">
<rect width="10" height="10" fill="white" transform="translate(0 0.5)"/>
</clipPath>
</defs>
</svg>
