<svg width="49" height="49" viewBox="0 0 49 49" fill="none" xmlns="http://www.w3.org/2000/svg">
<path d="M36.75 5.05312C33.1516 2.83281 29.0172 1.53125 24.5 1.53125V5.05312H36.75Z" fill="#ED4C5C"/>
<path d="M24.5 8.57498H41.0375C39.7359 7.27341 38.2812 6.04841 36.75 5.0531H24.5V8.57498Z" fill="white"/>
<path d="M24.5 12.0968H43.8703C43.0281 10.7953 42.1094 9.64683 41.1141 8.57495H24.5V12.0968Z" fill="#ED4C5C"/>
<path d="M24.5 15.6188H45.7078C45.1719 14.3938 44.5594 13.1688 43.8703 12.0969H24.5V15.6188Z" fill="white"/>
<path d="M24.5 19.1406H46.8563C46.55 17.9156 46.1672 16.7672 45.7078 15.6188H24.5V19.1406Z" fill="#ED4C5C"/>
<path d="M24.5 22.739H47.3922C47.3156 21.514 47.0859 20.3656 46.8563 19.2172H24.5V22.739Z" fill="white"/>
<path d="M47.3922 22.739H24.5V24.5H1.53125C1.53125 25.1125 1.53125 25.6484 1.60781 26.2609H47.3922C47.4688 25.6484 47.4688 25.1125 47.4688 24.5C47.4688 23.8875 47.4688 23.275 47.3922 22.739Z" fill="#ED4C5C"/>
<path d="M2.14376 29.7829H46.8563C47.1625 28.6344 47.3156 27.486 47.3922 26.261H1.60782C1.68438 27.4094 1.91407 28.6344 2.14376 29.7829Z" fill="white"/>
<path d="M3.29218 33.3047H45.7078C46.1672 32.1563 46.55 31.0078 46.8562 29.7828H2.14374C2.44999 31.0078 2.8328 32.1563 3.29218 33.3047Z" fill="#ED4C5C"/>
<path d="M5.12968 36.8266H43.8703C44.5594 35.6781 45.1719 34.5297 45.7078 33.3047H3.29218C3.82811 34.5297 4.44061 35.6781 5.12968 36.8266Z" fill="white"/>
<path d="M7.88595 40.3484H41.1141C42.1094 39.2765 43.1047 38.0515 43.8703 36.8265H5.1297C5.89532 38.1281 6.89064 39.2765 7.88595 40.3484Z" fill="#ED4C5C"/>
<path d="M12.1734 43.8703H36.8265C38.4344 42.8749 39.8125 41.65 41.1141 40.3484H7.88593C9.18749 41.7265 10.6422 42.8749 12.1734 43.8703Z" fill="white"/>
<path d="M24.5 47.4688C29.0172 47.4688 33.2281 46.1672 36.8266 43.8704H12.1734C15.7719 46.1672 19.9828 47.4688 24.5 47.4688Z" fill="#ED4C5C"/>
<path d="M12.25 5.05312C10.6422 6.04844 9.1875 7.27344 7.88594 8.575C6.81406 9.64687 5.89531 10.8719 5.12969 12.0969C4.44062 13.2453 3.75156 14.3937 3.29219 15.6187C2.83281 16.7672 2.45 17.9156 2.14375 19.1406C1.8375 20.2891 1.68437 21.4375 1.60781 22.6625C1.53125 23.275 1.53125 23.8875 1.53125 24.5H24.5V1.53125C19.9828 1.53125 15.8484 2.83281 12.25 5.05312Z" fill="#428BC1"/>
<path d="M19.1406 2.29688L19.5234 3.44531H20.6719L19.7531 4.21094L20.0594 5.35938L19.1406 4.67031L18.2219 5.35938L18.5281 4.21094L17.6094 3.44531H18.7578L19.1406 2.29688ZM22.2031 6.89062L22.5859 8.03906H23.7344L22.8156 8.80469L23.1219 9.95312L22.2031 9.26406L21.2844 9.95312L21.5906 8.80469L20.6719 8.03906H21.8203L22.2031 6.89062ZM16.0781 6.89062L16.4609 8.03906H17.6094L16.6906 8.80469L16.9969 9.95312L16.0781 9.26406L15.1594 9.95312L15.4656 8.80469L14.5469 8.03906H15.6953L16.0781 6.89062ZM19.1406 11.4844L19.5234 12.6328H20.6719L19.7531 13.3984L20.0594 14.5469L19.1406 13.8578L18.2219 14.5469L18.5281 13.3984L17.6094 12.6328H18.7578L19.1406 11.4844ZM13.0156 11.4844L13.3984 12.6328H14.5469L13.6281 13.3984L13.9344 14.5469L13.0156 13.8578L12.0969 14.5469L12.4031 13.3984L11.4844 12.6328H12.6328L13.0156 11.4844ZM6.89062 11.4844L7.27343 12.6328H8.42187L7.50312 13.3984L7.80937 14.5469L6.89062 13.8578L5.97187 14.5469L6.27812 13.3984L5.35937 12.6328H6.50781L6.89062 11.4844ZM22.2031 16.0781L22.5859 17.2266H23.7344L22.8156 17.9922L23.1219 19.1406L22.2031 18.4516L21.2844 19.1406L21.5906 17.9922L20.6719 17.2266H21.8203L22.2031 16.0781ZM16.0781 16.0781L16.4609 17.2266H17.6094L16.6906 17.9922L16.9969 19.1406L16.0781 18.4516L15.1594 19.1406L15.4656 17.9922L14.5469 17.2266H15.6953L16.0781 16.0781ZM9.95312 16.0781L10.3359 17.2266H11.4844L10.5656 17.9922L10.8719 19.1406L9.95312 18.4516L9.03437 19.1406L9.34062 17.9922L8.42187 17.2266H9.57031L9.95312 16.0781ZM19.1406 20.6719L19.5234 21.8203H20.6719L19.7531 22.5859L20.0594 23.7344L19.1406 23.0453L18.2219 23.7344L18.5281 22.5859L17.6094 21.8203H18.7578L19.1406 20.6719ZM13.0156 20.6719L13.3984 21.8203H14.5469L13.6281 22.5859L13.9344 23.7344L13.0156 23.0453L12.0969 23.7344L12.4031 22.5859L11.4844 21.8203H12.6328L13.0156 20.6719ZM6.89062 20.6719L7.27343 21.8203H8.42187L7.50312 22.5859L7.80937 23.7344L6.89062 23.0453L5.97187 23.7344L6.27812 22.5859L5.35937 21.8203H6.50781L6.89062 20.6719ZM9.03437 9.95312L9.95312 9.26406L10.8719 9.95312L10.4891 8.80469L11.4078 8.03906H10.2594L9.95312 6.89062L9.57031 8.03906H8.49843L9.41718 8.72812L9.03437 9.95312ZM2.90937 19.1406L3.82812 18.4516L4.74687 19.1406L4.36406 17.9922L5.28281 17.2266H4.21093L3.82812 16.0781L3.44531 17.2266H2.67968C2.67968 17.3031 2.60312 17.3797 2.60312 17.4562L3.21562 17.9156L2.90937 19.1406Z" fill="white"/>
</svg>
